<?xml version="1.0" encoding="UTF-8"?>

<svg id="a" xmlns="http://www.w3.org/2000/svg" width="217.5" height="160" viewBox="0 0 217.5 160"><path d="M1.64,3.5C-1.1,13.71-.43,22.04,3.84,30.71c6.4,13.01,18.95,21.75,40.9,28.49,13.8,4.24,31.66,8.11,41.45,8.98l2.93.26v11.43c0,9.41-.1,11.73-.59,13.09-2.11,5.91-.29,13.07,4.56,17.92,2.79,2.79,5.89,4.47,10.06,5.47,16.24,3.89,30.3-8.94,25.86-23.59-.44-1.46-.56-4.23-.56-13.07v-11.21l4.19-.46c2.3-.26,6.94-.98,10.31-1.61,25.42-4.75,44.38-11.09,55.47-18.54,7.15-4.81,13.71-12.37,16.55-19.06,2.15-5.07,2.55-7.33,2.55-14.17,0-5.67-.11-6.6-1.09-10.21-1.15-4.23-1.74-5.44-1.74-3.55,0,2.87-2.42,8.43-5.5,12.63-12.77,17.4-48.16,35.21-80.72,40.63-3.22.54-7.27,1.1-8.98,1.26l-3.12.28-.1,21.24-.1,21.24-1.13,1.61c-2.76,3.91-8.09,4.41-11.52,1.08-.84-.81-1.66-2.07-1.88-2.88-.26-.93-.4-8.69-.4-21.96v-20.52h-1.31c-2.14,0-9.72-1.08-14.87-2.12C48.78,46.03,15.5,27.35,5.95,8.95c-1.28-2.47-1.85-4.01-3.04-8.29-.2-.72-.47-.12-1.26,2.84M6.8,47.97c.97,9.3,5.93,16.96,13.2,20.36,1.76.82,4.96,1.93,7.13,2.46,8.18,2,37.08,5.54,54.89,6.73,2.15.14,2.18.13,2.18-.88,0-.56.1-1.53.23-2.15l.23-1.13-2.4-.27c-4.02-.45-17.01-3.13-26.65-5.51-23.05-5.69-38.87-12.38-46.8-19.79l-2.22-2.08.24,2.27M208.92,47.7c-5.79,5.46-17.78,11.38-32.12,15.85-11.56,3.61-29.76,7.84-42.55,9.9-.88.14-1.16.36-1.06.84.07.36.24,1.31.37,2.11l.24,1.46,3.28-.26c5.55-.44,21.11-2.07,27.49-2.88,28.02-3.55,34.15-5.34,39.99-11.65,2.46-2.67,4.42-6.43,5.54-10.64.72-2.71,1.4-6.82,1.12-6.79-.07,0-1.1.93-2.29,2.05M18.19,75.17c.49,1.65,3.29,6.3,4.94,8.18,1.96,2.24,5.2,4.03,8.43,4.66,4.47.87,17.74.03,42.61-2.69,9.66-1.06,9.43-.99,9.57-2.89l.11-1.54-2.76-.22c-1.52-.12-5.31-.32-8.43-.45-8.51-.33-31.87-1.64-37.25-2.1-7.26-.61-12.19-1.66-16.78-3.57-.61-.25-.67-.17-.44.61M198.76,74.75c-1.31.76-7.2,2.22-11.31,2.79-5.92.82-23.33,1.95-48.12,3.1l-5.2.24v1.63c0,1.96-.66,1.75,9.08,2.81,35.18,3.82,42.11,3.94,47.75.87,2.99-1.63,6.62-6.13,8.4-10.4.6-1.45.48-1.67-.59-1.04M79.28,88.07c-8.35,1.41-30.83,4.92-39.48,6.17-4.97.72-9.11,1.38-9.21,1.47s1.18,1.54,2.83,3.22c4.77,4.84,8.36,5.85,15.05,4.21,5.63-1.38,34.04-11.06,34.86-11.88.09-.09.1-.99.04-2.01l-.12-1.85-3.97.67M134.19,89.41l.11,2.07,4.92,1.86c7.3,2.77,25.6,8.85,29.46,9.79,4.33,1.06,7.94.93,10.63-.38,1.04-.51,3.34-2.32,5.1-4.02l3.21-3.1-1.32-.21c-.73-.12-5.07-.74-9.64-1.37-6.86-.96-26.12-3.98-39.63-6.21l-2.95-.49.11,2.07M79.85,96.32c-4.64,1.94-22.84,9.04-29.4,11.46-3.48,1.29-6.33,2.54-6.34,2.78-.02.85,7.75,7.38,12.8,10.76,4.41,2.96,5.13,3.32,5.67,2.88,4.77-3.95,16.07-14.23,19.11-17.39l1.85-1.93-.52-1.92c-.29-1.06-.49-3.24-.46-4.85.03-1.61.03-2.92,0-2.91-.91.37-1.81.74-2.72,1.12M135.12,97.89c.12,1.82,0,3.48-.37,4.85l-.56,2.07,1.76,1.89c3.12,3.34,15.91,15.12,19.05,17.54.56.43,1.04.26,3.59-1.33,5.67-3.53,15.24-11.2,15.24-12.22,0-.15-2-1.01-4.44-1.91-3.26-1.2-29.9-11.76-34.01-13.48-.33-.14-.4.54-.26,2.58M81.9,110.93c-1.55,1.57-5.79,5.67-9.43,9.1-3.64,3.43-6.67,6.39-6.74,6.56-.17.45,7.57,4.27,12.7,6.27,5.57,2.18,12.76,4.12,18.5,4.99l4.6.7.21-1.17c.62-3.46,2.14-14.78,2.04-15.26-.07-.35-1.18-.82-2.95-1.27-4.58-1.15-8.13-3.1-11.19-6.16-1.48-1.47-3.19-3.57-3.81-4.65l-1.12-1.97-2.81,2.86M131.55,110.41c-1.43,2.53-4.67,5.76-7.45,7.43-2.15,1.29-7.63,3.43-8.83,3.44-1.55.01-1.56.31-.42,8.51.61,4.37,1.11,8.06,1.11,8.22,0,1.24,12.68-1.35,20.94-4.28,4.68-1.66,14.99-6.53,14.99-7.08,0-.18-.89-1.08-1.99-2-1.09-.91-5.32-4.94-9.39-8.95-4.07-4.01-7.51-7.29-7.62-7.29s-.72.9-1.34,1.99M106.76,121.91c-.14.14-.25.95-.25,1.8s-.43,5.71-.95,10.81c-.53,5.16-.85,10.02-.71,10.97.57,4.12,3.15,13.63,3.93,14.49.48.53,2.44-5.46,3.6-11.05.81-3.9.77-5.69-.34-16.84-.54-5.39-.98-9.95-.98-10.12,0-.37-3.92-.42-4.29-.06"/>
 <rect width="100%" height="100%" fill="#eb5e28"/>
</svg>